<svg width="7" height="11" viewBox="0 0 7 11" fill="none" xmlns="http://www.w3.org/2000/svg">
<path d="M1.64 -0.000185013C1.77471 0.000329018 1.90792 0.0280533 2.03164 0.0813236C2.15537 0.134594 2.26706 0.212313 2.36 0.309814L6.22 4.30981C6.40323 4.49674 6.50586 4.74806 6.50586 5.00981C6.50586 5.27157 6.40323 5.52289 6.22 5.70981L2.22 9.70981C2.12676 9.80305 2.01607 9.87701 1.89425 9.92747C1.77243 9.97793 1.64186 10.0039 1.51 10.0039C1.37814 10.0039 1.24757 9.97793 1.12575 9.92747C1.00393 9.87701 0.89324 9.80305 0.800002 9.70981C0.706764 9.61658 0.632802 9.50589 0.582342 9.38406C0.531882 9.26224 0.50591 9.13167 0.50591 8.99981C0.50591 8.86796 0.531882 8.73739 0.582342 8.61556C0.632802 8.49374 0.706764 8.38305 0.800002 8.28981L4.1 4.99981L0.920002 1.69981C0.733751 1.51245 0.62921 1.259 0.62921 0.994816C0.62921 0.73063 0.733751 0.477179 0.920002 0.289816C1.01463 0.19593 1.12707 0.121909 1.25072 0.0721073C1.37436 0.0223055 1.50672 -0.00227451 1.64 -0.000185013Z" fill="black"/>
</svg>
